HIERARCHY
ROOT Hips
{
 OFFSET 0.000000 0.000000 0.000000
 CHANNELS 6 Xposition Yposition Zposition Yrotation Xrotation Zrotation
 JOINT Chest
 {
  OFFSET 0.000000 9.585900 0.002600
  CHANNELS 3 Yrotation Xrotation Zrotation
  JOINT Chest2
  {
   OFFSET 0.000000 9.601200 -0.005300
   CHANNELS 3 Yrotation Xrotation Zrotation
   JOINT Chest3
   {
    OFFSET 0.000000 9.561800 0.000000
    CHANNELS 3 Yrotation Xrotation Zrotation
    JOINT Chest4
    {
     OFFSET 0.000000 9.552100 0.000000
     CHANNELS 3 Yrotation Xrotation Zrotation
     JOINT Neck
     {
      OFFSET 0.000000 14.453000 0.000000
      CHANNELS 3 Yrotation Xrotation Zrotation
      JOINT Head
      {
       OFFSET 0.000000 8.936500 -0.011300
       CHANNELS 3 Yrotation Xrotation Zrotation
       End Site
       {
        OFFSET 0.000000 17.073600 -0.006000
       }
      }
     }
     JOINT RightCollar
     {
      OFFSET -2.921100 9.558500 0.000000
      CHANNELS 3 Yrotation Xrotation Zrotation
      JOINT RightShoulder
      {
       OFFSET -13.519700 0.000000 0.000000
       CHANNELS 3 Yrotation Xrotation Zrotation
       JOINT RightElbow
       {
        OFFSET 0.000000 -29.696600 0.000000
        CHANNELS 3 Yrotation Xrotation Zrotation
        JOINT RightWrist
        {
         OFFSET 0.000000 -24.004700 0.000000
         CHANNELS 3 Yrotation Xrotation Zrotation
         End Site
         {
          OFFSET 0.000000 -17.728500 0.000000
         }
        }
       }
      }
     }
     JOINT LeftCollar
     {
      OFFSET 2.921100 9.558500 0.000000
      CHANNELS 3 Yrotation Xrotation Zrotation
      JOINT LeftShoulder
      {
       OFFSET 13.519700 0.000000 0.000000
       CHANNELS 3 Yrotation Xrotation Zrotation
       JOINT LeftElbow
       {
        OFFSET 0.000000 -29.696600 0.000000
        CHANNELS 3 Yrotation Xrotation Zrotation
        JOINT LeftWrist
        {
         OFFSET 0.000000 -24.004700 0.000000
         CHANNELS 3 Yrotation Xrotation Zrotation
         End Site
         {
          OFFSET 0.000000 -17.728500 0.000000
         }
        }
       }
      }
     }
    }
   }
  }
 }
 JOINT RightHip
 {
  OFFSET -7.771700 -0.012900 -0.001300
  CHANNELS 3 Yrotation Xrotation Zrotation
  JOINT RightKnee
  {
   OFFSET 0.000000 -40.869800 0.001200
   CHANNELS 3 Yrotation Xrotation Zrotation
   JOINT RightAnkle
   {
    OFFSET 0.000000 -39.717900 0.002100
    CHANNELS 3 Yrotation Xrotation Zrotation
    JOINT RightToe
    {
     OFFSET 0.000000 -4.965400 11.033500
     CHANNELS 3 Yrotation Xrotation Zrotation
     End Site
     {
      OFFSET 0.000000 -1.423100 5.872300
     }
    }
   }
  }
 }
 JOINT LeftHip
 {
  OFFSET 7.771700 -0.012900 -0.001300
  CHANNELS 3 Yrotation Xrotation Zrotation
  JOINT LeftKnee
  {
   OFFSET 0.000000 -40.869800 0.001200
   CHANNELS 3 Yrotation Xrotation Zrotation
   JOINT LeftAnkle
   {
    OFFSET 0.000000 -39.717900 0.002100
    CHANNELS 3 Yrotation Xrotation Zrotation
    JOINT LeftToe
    {
     OFFSET 0.000000 -4.965400 11.033500
     CHANNELS 3 Yrotation Xrotation Zrotation
     End Site
     {
      OFFSET 0.000000 -1.423100 5.872300
     }
    }
   }
  }
 }
}
MOTION
Frames: 13
Frame Time: 0.008333
0.000000 85.388000 0.000000 0.000000 -5.767877 0.000000 0.000000 11.653817 0.000000 0.000000 -5.885947 0.000000 0.000000 -0.000000 0.000000 0.000000 -0.000000 0.000000 0.000000 12.528835 0.000000 0.000000 0.711642 0.000000 0.000000 -0.000000 0.000000 0.000000 0.000000 -90.000000 0.000000 -2.309062 0.000000 0.000000 2.309062 0.000000 0.000000 -0.000000 0.000000 0.000000 -0.000000 90.000000 0.000000 -2.309062 0.000000 0.000000 2.309062 0.000000 0.000000 8.520406 0.000000 0.000000 1.905762 0.000000 -0.000000 -4.658285 0.000000 0.000000 -0.000000 0.000000 0.000000 8.520406 0.000000 0.000000 1.905762 0.000000 -0.000000 -4.658285 0.000000 0.000000 -0.000000 0.000000
-17.931368 51.658679 29.475187 178.112078 -22.096911 2.094998 -4.891297 11.751653 0.668522 -0.384544 0.912725 0.132986 -0.684996 1.569234 0.244358 -4.471071 10.704502 1.231088 -8.959177 18.128113 -1.888577 -9.338527 -6.267096 0.003260 4.570135 14.580795 10.769090 11.489813 -12.493841 -50.617631 122.209198 -34.731333 -170.167715 3.804345 3.601332 -13.797508 0.213097 16.641927 -16.036414 -27.665222 3.159982 27.945877 -102.677757 -63.396450 144.394154 10.612012 7.330665 -6.906392 -10.085806 -61.524678 2.259566 -73.975171 83.113513 -82.911653 -3.430572 -5.797102 6.655937 0.293822 -0.832962 0.131075 14.031098 -57.519634 -11.578612 39.475452 85.282057 45.440655 -2.889045 -13.738477 0.917654 0.243209 0.599376 0.117943
-17.938629 51.656385 29.476401 178.106013 -22.083958 2.078631 -4.873715 11.738273 0.684748 -0.358753 0.900903 0.115358 -0.668448 1.557799 0.237514 -4.428890 10.684877 1.232046 -8.923028 18.107101 -1.893931 -9.323712 -6.271669 0.004305 4.521048 14.616241 10.767782 11.384787 -12.357424 -50.441720 122.089542 -34.692287 -170.038095 3.849508 4.114544 -13.507695 0.158488 16.668492 -16.004394 -27.570992 3.086651 27.959523 -102.753637 -63.284081 144.557227 10.605709 7.255998 -7.139210 -10.085195 -61.525046 2.258516 -73.822818 83.121001 -82.745297 -3.415264 -5.818585 6.669579 0.279940 -0.809587 0.117697 14.019145 -57.544310 -11.569280 39.614408 85.287986 45.585691 -2.883826 -13.732998 0.914795 0.239477 0.591951 0.113960
-17.946569 51.654147 29.476574 178.102502 -22.075785 2.056577 -4.836269 11.722027 0.692601 -0.353519 0.895906 0.113322 -0.652480 1.545756 0.230386 -4.405421 10.673452 1.238488 -8.889045 18.088392 -1.899160 -9.282943 -6.295422 -0.009059 4.484539 14.641537 10.752107 11.303896 -12.210999 -50.257476 121.972707 -34.670610 -169.919170 3.886630 4.584930 -13.205207 0.146891 16.668602 -15.996810 -27.491015 3.044630 27.982863 -102.802393 -63.180034 144.688653 10.596042 7.207405 -7.413945 -10.098793 -61.519546 2.273982 -73.684574 83.126255 -82.597538 -3.410725 -5.838329 6.683942 0.274102 -0.797959 0.110827 14.006635 -57.572074 -11.574265 39.961049 85.290688 45.950452 -2.857104 -13.707879 0.909955 0.223527 0.562165 0.103648
-17.954548 51.651948 29.475883 178.099685 -22.070953 2.029379 -4.795741 11.708333 0.704999 -0.351763 0.890674 0.108924 -0.646084 1.538951 0.229346 -4.373758 10.656476 1.238839 -8.852049 18.065249 -1.904216 -9.238765 -6.324301 -0.022882 4.448407 14.666263 10.734384 11.243096 -12.063394 -50.068614 121.869463 -34.672600 -169.817563 3.910223 4.997149 -12.897731 0.171381 16.642403 -16.027234 -27.428611 3.061305 28.037406 -102.834185 -63.085424 144.801192 10.580334 7.183009 -7.725656 -10.121453 -61.510522 2.300845 -73.566194 83.125925 -82.471773 -3.401128 -5.851607 6.696855 0.268142 -0.781695 0.103732 13.983657 -57.593419 -11.560329 40.054544 85.309729 46.061008 -2.826097 -13.702283 0.902839 0.220982 0.550479 0.100973
-17.962048 51.649172 29.475994 178.105501 -22.058904 1.994593 -4.735838 11.672577 0.694243 -0.376131 0.899008 0.135914 -0.639900 1.532602 0.228121 -4.342843 10.640881 1.237456 -8.812596 18.037313 -1.907962 -9.192078 -6.358762 -0.035740 4.407024 14.697133 10.750386 11.211753 -11.923721 -49.914845 121.795461 -34.701599 -169.738576 3.918520 5.342108 -12.594357 0.181207 16.639869 -16.038091 -27.355093 3.048208 28.087333 -102.854133 -62.999898 144.903575 10.555668 7.182860 -8.071717 -10.158160 -61.507868 2.337700 -73.461037 83.120859 -82.358241 -3.385380 -5.862692 6.708949 0.255389 -0.773995 0.100448 13.952165 -57.623182 -11.540790 40.286323 85.313060 46.307309 -2.818103 -13.699172 0.899858 0.211795 0.545251 0.096991
-17.971009 51.647009 29.474215 178.111438 -22.056524 1.971177 -4.707883 11.657252 0.694299 -0.388498 0.904397 0.148613 -0.618481 1.517916 0.213012 -4.343331 10.646230 1.250378 -8.748449 17.985123 -1.930095 -9.144738 -6.396357 -0.047631 4.391207 14.710262 10.741995 11.187580 -11.802971 -49.760932 121.763584 -34.757380 -169.682770 3.911344 5.623412 -12.302772 0.199070 16.626003 -16.066133 -27.266496 3.016940 28.132658 -102.866575 -62.920644 144.989114 10.526529 7.200641 -8.446054 -10.178331 -61.500846 2.354178 -73.401935 83.119891 -82.292267 -3.384125 -5.868427 6.715087 0.256145 -0.771884 0.102708 13.925526 -57.637447 -11.524094 40.466510 85.315560 46.494053 -2.827834 -13.701671 0.901637 0.219513 0.545761 0.095892
-17.979049 51.645489 29.470486 178.105877 -22.064367 1.952244 -4.669156 11.651730 0.695956 -0.377631 0.897095 0.140901 -0.620502 1.516990 0.218551 -4.343659 10.652435 1.261705 -8.686673 17.933434 -1.951383 -9.097954 -6.434176 -0.060095 4.382941 14.714239 10.700600 11.152126 -11.701194 -49.571694 121.772944 -34.839054 -169.645484 3.886701 5.849492 -12.028166 0.203742 16.609401 -16.101395 -27.163255 2.982524 28.177641 -102.870489 -62.844947 145.054332 10.499993 7.226879 -8.838255 -10.200962 -61.487251 2.383529 -73.374441 83.120911 -82.263641 -3.394575 -5.860205 6.714392 0.264069 -0.784905 0.111304 13.905085 -57.640352 -11.507539 40.504482 85.337966 46.546111 -2.806912 -13.709373 0.892003 0.224738 0.545323 0.099685
-17.985588 51.642961 29.468900 178.109219 -22.057055 1.928129 -4.652141 11.638285 0.710978 -0.359913 0.886345 0.128182 -0.615615 1.512127 0.218381 -4.318768 10.640172 1.253878 -8.645482 17.905203 -1.952972 -9.053304 -6.470226 -0.074078 4.369936 14.740722 10.641085 11.101854 -11.630786 -49.337787 121.814458 -34.943004 -169.621640 3.845857 6.031523 -11.768314 0.184163 16.612506 -16.117990 -27.053230 2.947844 28.220700 -102.863627 -62.771850 145.110153 10.476896 7.252383 -9.239683 -10.216798 -61.483499 2.400691 -73.284123 83.122229 -82.160272 -3.396800 -5.863059 6.714258 0.266818 -0.778949 0.114100 13.887833 -57.661353 -11.503273 40.676337 85.347136 46.735377 -2.795325 -13.709239 0.889501 0.212125 0.542632 0.095280
-17.992195 51.641152 29.465453 178.119881 -22.060516 1.911230 -4.644840 11.634713 0.716001 -0.366268 0.889404 0.133346 -0.586688 1.492870 0.199781 -4.291236 10.628607 1.251204 -8.610494 17.878764 -1.962114 -9.011587 -6.503211 -0.088261 4.337154 14.766013 10.606118 11.079140 -11.561193 -49.135012 121.884072 -35.065527 -169.608203 3.794239 6.186368 -11.520211 0.159777 16.619452 -16.140400 -26.942509 2.914152 28.259652 -102.851568 -62.702434 145.162597 10.451812 7.268565 -9.635004 -10.205825 -61.471719 2.378020 -73.257759 83.124734 -82.113675 -3.388506 -5.874214 6.715882 0.261231 -0.772373 0.113724 13.874679 -57.669557 -11.511783 40.875443 85.353815 46.951176 -2.785325 -13.704480 0.886562 0.212807 0.532685 0.090993
-17.997445 51.638995 29.462735 178.121970 -22.058104 1.899545 -4.616452 11.617412 0.711555 -0.362806 0.886404 0.132492 -0.598242 1.499416 0.209875 -4.199445 10.578953 1.209794 -8.615909 17.884654 -1.940263 -8.972758 -6.532519 -0.100557 4.259746 14.815187 10.641113 11.075772 -11.494659 -48.965272 121.971130 -35.205131 -169.601362 3.733671 6.328658 -11.283901 0.085965 16.665960 -16.094021 -26.830586 2.853897 28.267921 -102.833656 -62.636140 145.205191 10.419311 7.274398 -10.005340 -10.222733 -61.470945 2.393642 -73.241282 83.133562 -82.097690 -3.391147 -5.868111 6.711691 0.267837 -0.779296 0.120501 13.890342 -57.683272 -11.546980 41.179656 85.355673 47.285311 -2.764855 -13.691839 0.880095 0.194185 0.514573 0.082550
-18.002041 51.637300 29.458813 178.130576 -22.063025 1.892621 -4.558816 11.587000 0.686227 -0.356673 0.880942 0.129872 -0.617151 1.509212 0.224315 -4.166924 10.566821 1.197601 -8.597368 17.874400 -1.933749 -8.936362 -6.557938 -0.111715 4.212231 14.841294 10.645070 11.072572 -11.426791 -48.783154 122.061300 -35.357465 -169.598795 3.664010 6.467360 -11.053023 0.036871 16.695015 -16.064037 -26.728261 2.796977 28.264193 -102.804433 -62.569443 145.237768 10.382494 7.278023 -10.353543 -10.216527 -61.462298 2.377561 -73.250168 83.133789 -82.098790 -3.382259 -5.872697 6.705217 0.267912 -0.778073 0.125934 13.890882 -57.683597 -11.561533 41.327882 85.359480 47.445069 -2.762565 -13.696667 0.879779 0.192188 0.514645 0.081064
-18.005106 51.635213 29.455759 178.132858 -22.062065 1.889884 -4.522714 11.569500 0.677831 -0.375265 0.887382 0.137409 -0.582137 1.489879 0.207039 -4.184751 10.579974 1.208632 -8.544563 17.838735 -1.957401 -8.901659 -6.578829 -0.123165 4.205212 14.836160 10.596559 11.066308 -11.353917 -48.584430 122.153204 -35.514132 -169.600979 3.588302 6.611514 -10.818742 0.025299 16.685037 -16.095002 -26.632824 2.766234 28.268805 -102.776452 -62.503622 145.280084 10.343087 7.287611 -10.700878 -10.202762 -61.461773 2.362434 -73.257534 83.132746 -82.097152 -3.381463 -5.869129 6.701422 0.269492 -0.781951 0.129398 13.892852 -57.687978 -11.567945 41.419360 85.364583 47.540785 -2.764963 -13.708453 0.881353 0.192853 0.521491 0.080793
